<svg xmlns="http://www.w3.org/2000/svg" width="53" height="53" viewBox="0 0 53 53"><defs><style>.a{fill:#fff;stroke:#e1e1e1;stroke-miterlimit:10;}.b{fill:#676767;}.c{fill:#ff0200;}.d{fill:none;}</style></defs><g transform="translate(-377.5 -468.5)"><circle class="a" cx="26" cy="26" r="26" transform="translate(378 469)"/><g transform="translate(386.367 477.367)"><path class="b" d="M46.211,197.818a.532.532,0,0,1-.357-.155L37.6,189.411a.529.529,0,0,1-.011-.739l2.125-2.251a.533.533,0,0,1,.383-.166h.015a.582.582,0,0,1,.366.155l1.154,1.158,4.13-3.44a.533.533,0,0,1,.339-.122h5.251a.523.523,0,0,1,.375.155L53.07,185.5h2.779a2,2,0,0,1,1.281.47l.155.126,4.337-4.338a.53.53,0,0,1,.334-.153c.09-.007.18-.011.269-.011a2.431,2.431,0,0,1,2.315,1.293,2.143,2.143,0,0,1-.351,2.4l-7.2,7.857a.529.529,0,0,1-.391.172H48.477l-.726.366.98.98a.528.528,0,0,1,.011.739l-2.125,2.251a.529.529,0,0,1-.377.166Zm-7.5-8.792,7.5,7.5,1.4-1.476-7.5-7.5Zm3.671-.7,4.57,4.571,1.158-.575a.538.538,0,0,1,.238-.056h8.023l7.043-7.683a1.09,1.09,0,0,0,.178-1.219,1.365,1.365,0,0,0-1.265-.695h-.1l-4.4,4.4.022.114a2.1,2.1,0,0,1,.033.357v.009a.562.562,0,0,0-.006.061,2.021,2.021,0,0,1-.023.277.128.128,0,0,1-.007.026,1.459,1.459,0,0,1-.039.146l-.034.113a.8.8,0,0,1-.032.1,2.151,2.151,0,0,1-.135.274l-.017.033a2.012,2.012,0,0,1-1.738,1h-5.03v-1.066h4.9a1.184,1.184,0,0,0,.929-.447l.012-.018a.822.822,0,0,0,.111-.252v-.012a.856.856,0,0,0,.035-.182.746.746,0,0,0,0-.108,1.011,1.011,0,0,0-.052-.256v-.01a.375.375,0,0,0-.027-.082.972.972,0,0,0-.882-.575h-3a.523.523,0,0,1-.375-.155l-1.341-1.341H46.293Z" transform="translate(-33.581 -163.924)"/><path class="b" d="M93.121,26.722a8.791,8.791,0,1,1,8.791-8.791A8.791,8.791,0,0,1,93.121,26.722Zm0-16.5a7.712,7.712,0,1,0,7.712,7.712A7.712,7.712,0,0,0,93.121,10.219Z" transform="translate(-75.974 -7.988)"/><path class="c" d="M150.082,67.085a.371.371,0,0,1-.267-.115l-3.527-3.737a.362.362,0,0,1,.264-.611h1.892a1.257,1.257,0,0,0,1.144-.862h-3.051a.368.368,0,0,1-.367-.367v-.178a.368.368,0,0,1,.367-.367h3.05a1.227,1.227,0,0,0-1.15-.862h-1.9a.368.368,0,0,1-.367-.367v-.181a.368.368,0,0,1,.367-.367h4.992a.368.368,0,0,1,.374.367v.181a.368.368,0,0,1-.367.367h-1.387a2.424,2.424,0,0,1,.353.862h1.031a.368.368,0,0,1,.371.367V61.4a.368.368,0,0,1-.367.367H150.5a2.151,2.151,0,0,1-2.032,1.777h-.653l2.66,2.784a.367.367,0,0,1,0,.507l-.133.14A.371.371,0,0,1,150.082,67.085Z" transform="translate(-131.889 -53.134)"/><rect class="d" width="34" height="34" transform="translate(0.633 0.633)"/></g></g></svg>